<svg width="554" height="209" viewBox="0 0 554 209" fill="none" xmlns="http://www.w3.org/2000/svg">
<path d="M283.733 178.304C286.277 180.77 287.549 184.361 287.549 189.071V208.676H282.914V189.523C282.914 186.008 282.017 183.329 280.233 181.486C278.449 179.643 275.896 178.722 272.592 178.722C268.887 178.722 265.959 179.806 263.808 181.972C261.648 184.139 260.573 187.125 260.573 190.939V208.684H255.937V174.874H260.376V181.111C261.64 179.055 263.39 177.459 265.635 176.325C267.88 175.19 270.475 174.618 273.438 174.618C277.757 174.61 281.189 175.847 283.733 178.304Z" fill="#E6C67E"/>
<path d="M331.121 174.866V208.676H326.682V202.507C325.461 204.563 323.788 206.159 321.653 207.293C319.519 208.428 317.078 209 314.337 209C309.856 209 306.313 207.771 303.726 205.306C301.131 202.84 299.842 199.231 299.842 194.471V174.866H304.477V194.019C304.477 197.576 305.365 200.272 307.158 202.115C308.942 203.958 311.486 204.879 314.798 204.879C318.409 204.879 321.261 203.796 323.352 201.637C325.444 199.479 326.485 196.459 326.485 192.602V174.857H331.121V174.866Z" fill="#E6C67E"/>
<path d="M362.212 206.619C361.342 207.387 360.266 207.984 358.977 208.385C357.688 208.795 356.356 209 354.956 209C351.738 209 349.253 208.147 347.512 206.432C345.77 204.717 344.899 202.294 344.899 199.172V178.73H338.761V174.874H344.899V167.486H349.535V174.874H359.984V178.73H349.535V198.916C349.535 200.929 350.047 202.465 351.072 203.514C352.096 204.563 353.564 205.092 355.477 205.092C356.433 205.092 357.363 204.947 358.251 204.64C359.139 204.342 359.916 203.915 360.573 203.352L362.212 206.619Z" fill="#E6C67E"/>
<path d="M440.743 178.279C443.201 180.719 444.431 184.319 444.431 189.079V208.684H439.795V189.531C439.795 186.017 438.933 183.338 437.217 181.495C435.493 179.652 433.068 178.731 429.935 178.731C426.367 178.731 423.558 179.814 421.509 181.981C419.46 184.148 418.436 187.134 418.436 190.948V208.693H413.8V189.54C413.8 186.025 412.938 183.346 411.222 181.503C409.498 179.661 407.048 178.739 403.872 178.739C400.346 178.739 397.546 179.823 395.48 181.99C393.414 184.157 392.381 187.143 392.381 190.956V208.701H387.746V174.892H392.185V181.06C393.406 179.004 395.105 177.417 397.282 176.299C399.458 175.19 401.96 174.627 404.794 174.627C407.671 174.627 410.164 175.233 412.272 176.427C414.381 177.63 415.96 179.405 417.01 181.759C418.274 179.533 420.092 177.784 422.465 176.521C424.839 175.258 427.553 174.627 430.601 174.627C434.904 174.61 438.284 175.83 440.743 178.279Z" fill="#E6C67E"/>
<path d="M456.98 166.514C456.331 165.874 455.999 165.097 455.999 164.202C455.999 163.349 456.323 162.598 456.98 161.949C457.629 161.309 458.44 160.985 459.396 160.985C460.352 160.985 461.155 161.292 461.812 161.915C462.469 162.538 462.794 163.28 462.794 164.133C462.794 165.072 462.469 165.865 461.812 166.514C461.155 167.162 460.352 167.478 459.396 167.478C458.432 167.478 457.629 167.154 456.98 166.514ZM457.04 174.866H461.676V208.676H457.04V174.866Z" fill="#E6C67E"/>
<path d="M479.244 160.985H474.609V208.684H479.244V160.985Z" fill="#E6C67E"/>
<path d="M504.915 191.707L496.814 199.035V208.684H492.178V160.985H496.814V193.319L517.328 174.866H523.073L508.381 188.687L524.448 208.684H518.762L504.915 191.707Z" fill="#E6C67E"/>
<path d="M418.659 31.4279C419.035 32.1872 419.359 32.9635 419.624 33.7655C418.873 34.0555 418.096 34.2859 417.31 34.4736C410.831 35.9921 403.592 33.8849 399.579 26.2409C399.443 25.985 399.315 25.729 399.186 25.4645C398.674 24.4066 398.247 23.3061 397.872 22.18C401.867 21.0709 406.246 21.3439 410.242 23.2293C410.592 23.3914 410.933 23.5706 411.275 23.7583C411.616 23.946 411.949 24.1422 412.274 24.3469C415.108 26.1385 417.259 28.6126 418.659 31.4279Z" fill="#60BA62"/>
<path d="M441.137 140.647L404.343 65.1611C403.139 62.6529 401.321 60.7333 398.905 59.3768C396.489 58.0374 393.894 57.3634 391.102 57.3634C388.225 57.3634 385.596 58.0374 383.222 59.3768C380.858 60.7247 379.065 62.6529 377.861 65.1611L341.067 140.647C340.231 142.413 339.812 144.127 339.812 145.8C339.812 148.862 341.084 151.464 343.646 153.597C346.207 155.739 349.058 156.805 352.217 156.805C354.359 156.805 356.331 156.25 358.141 155.133C359.951 154.015 361.368 152.352 362.393 150.116L368.804 136.057H413.955L420.23 150.116C421.246 152.352 422.637 154.015 424.404 155.133C426.171 156.25 428.118 156.805 430.252 156.805C433.411 156.805 436.219 155.739 438.687 153.597C441.145 151.464 442.383 148.862 442.383 145.8C442.392 144.127 441.973 142.413 441.137 140.647ZM377.452 116.827L391.392 85.7728L405.324 116.827H377.452Z" fill="#60BA62"/>
<path d="M376.887 50.3934C375.026 50.3934 373.378 49.7194 371.936 48.3714C370.493 47.0235 369.776 45.4707 369.776 43.7047C369.776 41.2904 371.125 39.2428 373.814 37.5792L383.153 32.6993C386.218 30.9333 388.864 30.0546 391.101 30.0546C393.329 30.0546 395.975 30.9418 399.049 32.6993L408.388 37.5792C411.171 39.3452 412.571 41.4354 412.571 43.8498C412.571 45.6158 411.854 47.1685 410.411 48.5164C408.969 49.8644 407.321 50.5384 405.46 50.5384C404.068 50.5384 402.762 50.1203 401.559 49.2842L391.109 42.5957L381.079 49.0027C379.764 49.9327 378.372 50.3934 376.887 50.3934Z" fill="#60BA62"/>
<path d="M549.827 60.9806C552.055 63.3011 553.173 66.3212 553.173 70.0323V145.799C553.173 149.331 552.149 152.113 550.108 154.16C548.068 156.208 545.37 157.223 542.024 157.223C538.771 157.223 536.099 156.199 534.008 154.16C531.916 152.121 530.875 149.331 530.875 145.799V104.849L514.988 134.094C513.408 137.072 511.735 139.179 509.968 140.433C508.201 141.687 506.109 142.31 503.694 142.31C501.278 142.31 499.186 141.687 497.419 140.433C495.652 139.179 493.979 137.072 492.399 134.094L476.649 105.685V145.799C476.649 149.237 475.607 151.993 473.516 154.083C471.424 156.174 468.709 157.214 465.363 157.214C462.11 157.214 459.438 156.191 457.347 154.152C455.255 152.113 454.214 149.323 454.214 145.791V70.0238C454.214 66.3127 455.349 63.2926 457.629 60.972C459.908 58.6515 462.811 57.4913 466.336 57.4913C468.846 57.4913 471.125 58.2079 473.166 59.6497C475.206 61.0915 476.93 63.1561 478.322 65.852L503.967 114.046L529.475 65.852C532.352 60.281 536.253 57.4913 541.179 57.4913C544.713 57.4998 547.59 58.66 549.827 60.9806Z" fill="#60BA62"/>
<path d="M324.804 60.9807C322.576 58.6602 319.69 57.4999 316.165 57.4999C311.239 57.4999 307.338 60.2811 304.461 65.8521L278.953 114.046L253.308 65.8521C251.916 63.1647 250.192 61.0916 248.152 59.6583C246.111 58.2165 243.832 57.4999 241.322 57.4999C237.788 57.4999 234.885 58.6602 232.614 60.9807C230.335 63.3012 229.2 66.3213 229.2 70.0324V145.799C229.2 149.331 230.25 152.113 232.333 154.152C234.424 156.191 237.096 157.214 240.349 157.214C243.695 157.214 246.41 156.174 248.502 154.083C250.593 151.993 251.635 149.229 251.635 145.791V105.676L267.385 134.086C268.964 137.063 270.629 139.171 272.396 140.425C274.163 141.679 276.255 142.31 278.671 142.31C281.078 142.31 283.17 141.687 284.937 140.425C286.704 139.171 288.369 137.063 289.957 134.086L305.844 104.84V145.791C305.844 149.323 306.885 152.104 308.977 154.143C311.068 156.182 313.74 157.206 316.993 157.206C320.339 157.206 323.028 156.182 325.069 154.143C327.109 152.104 328.133 149.323 328.133 145.791V70.0239C328.151 66.3213 327.041 63.3012 324.804 60.9807Z" fill="#60BA62"/>
<path d="M101.332 154.626C100.48 154.673 99.624 154.7 98.76 154.7H98.6814C97.8175 154.7 96.9613 154.673 96.1092 154.626C96.0228 155.556 95.9639 156.49 95.9246 157.424C95.8932 158.193 96.1798 158.943 96.7179 159.496C97.2323 160.03 97.9353 160.344 98.6775 160.363H98.7561C99.4983 160.344 100.201 160.03 100.716 159.496C101.254 158.943 101.54 158.193 101.509 157.424C101.478 156.49 101.419 155.556 101.332 154.626ZM146.656 108.637C147.41 108.649 148.132 108.959 148.662 109.504C149.196 110.062 149.483 110.807 149.452 111.576C149.416 112.514 149.353 113.448 149.267 114.379C172.928 115.737 191.759 135.399 191.759 159.374C191.759 159.476 191.759 159.582 191.755 159.684V159.759L191.751 159.845C191.751 160.104 191.747 160.363 191.739 160.63L191.727 160.897C191.327 166.596 186.544 171.054 180.81 171.054C178.191 171.054 175.665 170.116 173.686 168.417C173.502 168.248 173.321 168.079 173.14 167.918C163.833 159.61 151.828 155.034 139.331 155.034C138.538 155.034 137.713 155.053 136.889 155.093C134.536 155.202 132.184 155.477 129.898 155.909C129.447 155.98 128.987 156.058 128.54 156.152C127.825 156.301 127.11 156.482 126.411 156.694C126.387 156.702 126.364 156.706 126.34 156.717C118.207 159.182 111.873 165.505 109.391 173.629C108.652 176.027 108.283 178.53 108.283 181.07V191.505C108.256 194.586 106.74 197.482 104.215 199.26C102.605 200.398 100.7 200.995 98.7129 200.995C96.7257 200.995 94.821 200.394 93.207 199.256C90.6858 197.482 89.1699 194.586 89.1424 191.529V181.066C89.1424 175.489 87.3712 170.195 84.0214 165.752C80.7854 161.47 76.1906 158.26 71.0814 156.71C71.0382 156.698 70.9754 156.678 70.9047 156.655C69.8326 156.337 68.7094 156.086 67.5666 155.909C67.5588 155.909 67.5548 155.909 67.547 155.905C65.2575 155.473 62.8972 155.199 60.5449 155.089C59.7163 155.049 58.8955 155.03 58.1022 155.03C45.6139 155.03 33.6125 159.602 24.313 167.899C24.1049 168.083 23.9046 168.268 23.7004 168.456C22.9306 169.111 22.0745 169.657 21.1477 170.077C19.73 170.728 18.2063 171.054 16.6236 171.054C10.8861 171.054 6.09495 166.584 5.70223 160.877C5.69045 160.528 5.68258 160.179 5.67866 159.849V159.688C5.67473 159.59 5.67474 159.48 5.67474 159.378C5.67474 157.29 5.82004 155.179 6.10673 153.103C6.10673 153.091 6.11065 153.071 6.11065 153.06C9.09135 131.827 26.9324 115.619 48.1665 114.383C48.0801 113.452 48.0212 112.518 47.9819 111.58C47.9505 110.811 48.2372 110.065 48.7713 109.508C49.3014 108.963 50.024 108.653 50.7781 108.641C38.4507 108.641 26.5632 113.111 17.303 121.227C8.13313 129.265 2.15993 140.312 0.486969 152.322C0.483042 152.338 0.479115 152.357 0.475188 152.377C0.161016 154.688 0 157.047 0 159.374C0 159.516 0.00393099 159.653 0.00393099 159.794V159.873C0.0117853 160.301 0.0157132 160.724 0.0353489 161.148C0.0392761 161.172 0.0392739 161.191 0.0392739 161.215C0.608711 169.908 7.89358 176.717 16.6197 176.717C19.0231 176.717 21.3362 176.219 23.4961 175.23C24.9178 174.586 26.2412 173.742 27.4272 172.726C27.4508 172.706 27.4744 172.683 27.4979 172.663C27.6864 172.487 27.8788 172.314 28.0831 172.133C36.3497 164.759 47.0119 160.697 58.1061 160.697C58.8091 160.697 59.5395 160.717 60.2818 160.752C62.3867 160.85 64.4877 161.097 66.5259 161.482C66.6045 161.498 66.6909 161.513 66.7694 161.521C67.6609 161.666 68.5249 161.863 69.3456 162.106C69.3731 162.118 69.4006 162.122 69.432 162.129C77.7065 164.633 83.4755 172.416 83.4755 181.066V191.548C83.5148 196.45 85.9339 201.062 89.9396 203.883C92.5119 205.697 95.5476 206.654 98.7129 206.654C101.878 206.654 104.91 205.693 107.482 203.883C111.492 201.062 113.911 196.45 113.95 191.525V181.066C113.95 179.092 114.237 177.145 114.81 175.281C116.742 168.95 121.679 164.033 128.021 162.122C128.041 162.114 128.06 162.11 128.084 162.102C128.61 161.945 129.152 161.808 129.686 161.698C130.024 161.627 130.362 161.564 130.703 161.509C130.758 161.501 130.817 161.494 130.872 161.482C132.918 161.093 135.035 160.846 137.152 160.744C137.89 160.713 138.621 160.689 139.327 160.689C150.43 160.689 161.096 164.755 169.362 172.137C169.527 172.282 169.684 172.424 169.834 172.569C169.885 172.616 169.932 172.659 169.987 172.702C172.995 175.289 176.836 176.709 180.81 176.709C189.536 176.709 196.817 169.9 197.39 161.207C197.39 161.168 197.394 161.129 197.394 161.089L197.406 160.811C197.418 160.513 197.418 160.21 197.422 159.908V159.877C197.426 159.865 197.426 159.853 197.426 159.841V159.786C197.426 159.649 197.43 159.508 197.43 159.37C197.434 131.4 174.656 108.637 146.656 108.637Z" fill="#60BA62"/>
<path d="M98.6818 160.367C85.4669 160.356 72.959 155.301 63.4553 146.129C53.9751 136.98 48.485 124.712 47.9862 111.576C47.9587 110.807 48.2415 110.058 48.7795 109.504C49.3136 108.951 50.0519 108.637 50.8216 108.637C50.8216 108.637 50.8216 108.637 50.8255 108.637C64.0365 108.649 76.5484 113.704 86.0482 122.871C95.5283 132.02 101.018 144.288 101.517 157.424C101.545 158.193 101.262 158.943 100.724 159.496C100.19 160.053 99.4515 160.367 98.6818 160.367ZM53.8691 114.406C56.1429 136.215 73.7287 153.134 95.6343 154.598C93.3605 132.793 75.7787 115.87 53.8691 114.406Z" fill="#E6C67E"/>
<path d="M98.7598 160.368C97.9901 160.368 97.2518 160.054 96.7177 159.5C96.1836 158.947 95.8969 158.197 95.9244 157.428C96.4192 144.296 101.913 132.024 111.393 122.876C120.897 113.704 133.405 108.649 146.616 108.641C146.616 108.641 146.616 108.641 146.62 108.641C147.39 108.641 148.128 108.955 148.662 109.508C149.196 110.062 149.483 110.811 149.455 111.581C148.961 124.712 143.466 136.985 133.986 146.133C124.483 155.301 111.975 160.356 98.7598 160.368ZM143.573 114.406C121.663 115.866 104.081 132.789 101.807 154.598C123.717 153.138 141.299 136.215 143.573 114.406Z" fill="#E6C67E"/>
<path d="M98.7606 160.367H98.6821C97.1584 160.367 95.9056 159.162 95.8506 157.64C94.9317 133.358 75.1545 114.324 50.818 114.304C49.2982 114.304 48.0533 113.107 47.9904 111.588C47.9708 111.168 47.963 110.748 47.9551 110.324C47.9512 110.089 47.9512 109.861 47.9512 109.63C47.9512 109.398 47.9512 109.167 47.9551 108.939C48.0297 94.4415 50.5117 80.1991 55.3342 66.6317C59.9997 53.5117 66.7504 41.2904 75.4019 30.3054C81.7129 22.2913 88.9703 15.0347 96.9699 8.74357C100.76 5.75693 104.761 2.95476 108.857 0.42338C109.768 -0.13784 110.915 -0.141766 111.83 0.41553C112.741 0.972825 113.264 1.99715 113.173 3.06465C113.008 5.08582 112.922 7.15802 112.922 9.22237C112.922 13.3982 113.268 17.5975 113.951 21.7027C116.138 34.7952 121.805 47.1263 130.347 57.3696C130.476 57.5187 130.602 57.6678 130.728 57.8209C142.588 72.028 149.252 90.0499 149.492 108.566C149.495 108.692 149.495 108.817 149.495 108.939C149.499 109.171 149.499 109.398 149.499 109.63C149.499 109.865 149.499 110.105 149.495 110.34C149.488 110.764 149.476 111.176 149.46 111.592C149.397 113.107 148.148 114.304 146.633 114.304C122.3 114.324 102.519 133.358 101.6 157.64C101.533 159.162 100.284 160.367 98.7606 160.367ZM53.622 108.715C65.7922 109.386 77.2163 114.355 86.0445 122.875C91.8331 128.46 96.1334 135.21 98.7174 142.608C101.301 135.21 105.606 128.46 111.39 122.875C120.219 114.355 131.643 109.386 143.813 108.715C143.813 108.711 143.813 108.704 143.813 108.7C143.813 108.684 143.813 108.668 143.813 108.653C143.593 91.4195 137.392 74.6497 126.357 61.4315C126.349 61.4237 126.341 61.4119 126.333 61.4041C126.231 61.2785 126.129 61.1608 126.027 61.0391C126.019 61.0273 126.011 61.0195 125.999 61.0077C116.81 49.9913 110.707 36.7222 108.355 22.6289C107.62 18.2137 107.247 13.7004 107.247 9.21845C107.247 8.88485 107.247 8.54734 107.255 8.21375C104.938 9.79537 102.672 11.4594 100.477 13.1902C92.8267 19.2105 85.8874 26.1453 79.8553 33.8062C62.89 55.3523 53.8223 81.2509 53.622 108.715Z" fill="#E6C67E"/>
</svg>
